<svg width="76" height="38" viewBox="0 0 76 38" fill="none" xmlns="http://www.w3.org/2000/svg">
<g opacity="0.8" clip-path="url(#clip0_1232_9112)">
<path d="M20.7514 31.0789C22.8147 31.0789 24.4872 29.4008 24.4872 27.3307C24.4872 25.2606 22.8147 23.5825 20.7514 23.5825C18.6882 23.5825 17.0156 25.2606 17.0156 27.3307C17.0156 29.4008 18.6882 31.0789 20.7514 31.0789Z" fill="#D6E4F1"/>
<path opacity="0.2" d="M17.9896 24.8281C17.6411 25.646 17.5938 26.5615 17.8562 27.411C18.1186 28.2606 18.6735 28.9889 19.4218 29.4658C20.1701 29.9426 21.063 30.137 21.941 30.0141C22.819 29.8913 23.6249 29.4592 24.2145 28.7951C24.0017 29.2947 23.6831 29.742 23.2808 30.1058C22.8786 30.4697 22.4023 30.7415 21.885 30.9023C21.3676 31.0631 20.8216 31.1092 20.2848 31.0373C19.748 30.9654 19.2331 30.7773 18.776 30.486C18.3188 30.1946 17.9302 29.807 17.6372 29.3501C17.3441 28.8931 17.1536 28.3777 17.0788 27.8395C17.004 27.3013 17.0467 26.7532 17.204 26.2333C17.3612 25.7133 17.6293 25.2338 17.9896 24.8281Z" fill="#47486B"/>
<path d="M20.7615 27.3315H20.7717L20.9564 37.9582H20.5664L20.7615 27.3315Z" fill="#47486B"/>
<path d="M13.1883 24.0901C17.3482 24.0901 20.7204 20.7067 20.7204 16.5331C20.7204 12.3595 17.3482 8.97607 13.1883 8.97607C9.02847 8.97607 5.65625 12.3595 5.65625 16.5331C5.65625 20.7067 9.02847 24.0901 13.1883 24.0901Z" fill="#D6E4F1"/>
<path opacity="0.2" d="M7.63122 11.4849C6.92865 13.1337 6.83334 14.9796 7.36233 16.6924C7.89131 18.4053 9.01012 19.8737 10.5188 20.8352C12.0275 21.7966 13.8278 22.1885 15.598 21.9408C17.3682 21.6931 18.9929 20.8219 20.1819 19.483C19.7527 20.4904 19.1103 21.3921 18.2993 22.1257C17.4883 22.8593 16.528 23.4072 15.485 23.7315C14.442 24.0558 13.3411 24.1487 12.2588 24.0037C11.1764 23.8588 10.1384 23.4795 9.21667 22.8921C8.29493 22.3047 7.51149 21.5232 6.92064 20.6019C6.32979 19.6806 5.94566 18.6414 5.79484 17.5563C5.64403 16.4712 5.73016 15.3662 6.04724 14.3179C6.36433 13.2695 6.90481 12.3028 7.63122 11.4849Z" fill="#47486B"/>
<path d="M13.2095 16.5332H13.2303L13.6027 37.9586H12.8164L13.2095 16.5332Z" fill="#47486B"/>
<path d="M62.8479 26.8687H28.3242V37.1368H62.8479V26.8687Z" fill="#D6E4F1"/>
<path d="M47.6036 28.9902H43.5781V37.1363H47.6036V28.9902Z" fill="#8FA5BA"/>
<path d="M60.838 14.752H30.3398V24.1987H60.838V14.752Z" fill="#D6E4F1"/>
<path d="M63.9306 15.3338H27.2484C27.1872 15.3338 27.1273 15.3154 27.0766 15.2811C27.0258 15.2467 26.9865 15.1978 26.9636 15.1408C26.9408 15.0838 26.9354 15.0213 26.9482 14.9612C26.9611 14.9011 26.9915 14.8463 27.0357 14.8037L37.0609 5.13543V0.924137C37.061 0.842467 37.0934 0.764168 37.151 0.706418C37.2085 0.648668 37.2866 0.616184 37.368 0.616092H39.3466C39.428 0.616181 39.506 0.648665 39.5636 0.706415C39.6212 0.764166 39.6535 0.842466 39.6536 0.924137V2.6351L40.4108 1.90483C41.65 0.70981 43.294 0.0296161 45.0125 0.000944567C46.731 -0.027727 48.3966 0.597248 49.6747 1.75027L64.1359 14.7967C64.1821 14.8383 64.2146 14.8931 64.2291 14.9537C64.2436 15.0143 64.2395 15.0779 64.2173 15.136C64.195 15.1942 64.1557 15.2443 64.1045 15.2796C64.0533 15.3149 63.9927 15.3338 63.9306 15.3338V15.3338Z" fill="#8FA5BA"/>
<path d="M38.3898 17.1475C38.6452 17.1475 38.898 17.1979 39.134 17.296C39.3699 17.394 39.5842 17.5377 39.7648 17.7189C39.9454 17.9 40.0886 18.1151 40.1863 18.3518C40.284 18.5885 40.3343 18.8422 40.3343 19.0984V21.7339H36.4453V19.0984C36.4453 18.8422 36.4956 18.5885 36.5933 18.3518C36.6911 18.1151 36.8343 17.9 37.0148 17.7189C37.1954 17.5377 37.4098 17.394 37.6457 17.296C37.8816 17.1979 38.1345 17.1475 38.3898 17.1475Z" fill="#080929"/>
<path d="M38.3898 17.1475C38.6452 17.1475 38.898 17.1979 39.134 17.296C39.3699 17.394 39.5842 17.5377 39.7648 17.7189C39.9454 17.9 40.0886 18.1151 40.1863 18.3518C40.284 18.5885 40.3343 18.8422 40.3343 19.0984V21.7339H36.4453V19.0984C36.4453 18.8422 36.4956 18.5885 36.5933 18.3518C36.6911 18.1151 36.8343 17.9 37.0148 17.7189C37.1954 17.5377 37.4098 17.394 37.6457 17.296C37.8816 17.1979 38.1345 17.1475 38.3898 17.1475Z" fill="white"/>
<path d="M45.589 17.1821C46.1048 17.1821 46.5994 17.3877 46.964 17.7535C47.3287 18.1194 47.5336 18.6157 47.5336 19.1331V21.7686H43.6445V19.1331C43.6445 18.6157 43.8494 18.1194 44.2141 17.7535C44.5787 17.3877 45.0733 17.1821 45.589 17.1821Z" fill="#080929"/>
<path d="M45.589 17.1821C46.1048 17.1821 46.5994 17.3877 46.964 17.7535C47.3287 18.1194 47.5336 18.6157 47.5336 19.1331V21.7686H43.6445V19.1331C43.6445 18.6157 43.8494 18.1194 44.2141 17.7535C44.5787 17.3877 45.0733 17.1821 45.589 17.1821Z" fill="white"/>
<path d="M52.7844 17.2158C53.3001 17.2158 53.7947 17.4214 54.1593 17.7872C54.524 18.1531 54.7289 18.6493 54.7289 19.1668V21.8023H50.8398V19.1668C50.8398 18.6493 51.0447 18.1531 51.4094 17.7872C51.774 17.4214 52.2686 17.2158 52.7844 17.2158Z" fill="#080929"/>
<path d="M52.7844 17.2158C53.3001 17.2158 53.7947 17.4214 54.1593 17.7872C54.524 18.1531 54.7289 18.6493 54.7289 19.1668V21.8023H50.8398V19.1668C50.8398 18.6493 51.0447 18.1531 51.4094 17.7872C51.774 17.4214 52.2686 17.2158 52.7844 17.2158Z" fill="white"/>
<path d="M55.6555 28.8872C56.1712 28.8872 56.6658 29.0928 57.0304 29.4586C57.3951 29.8245 57.6 30.3207 57.6 30.8382V33.4737H53.7109V30.8382C53.7109 30.3207 53.9158 29.8245 54.2805 29.4586C54.6451 29.0928 55.1397 28.8872 55.6555 28.8872Z" fill="#080929"/>
<path d="M55.6555 28.8872C56.1712 28.8872 56.6658 29.0928 57.0304 29.4586C57.3951 29.8245 57.6 30.3207 57.6 30.8382V33.4737H53.7109V30.8382C53.7109 30.3207 53.9158 29.8245 54.2805 29.4586C54.6451 29.0928 55.1397 28.8872 55.6555 28.8872Z" fill="white"/>
<path d="M36.4094 28.8872C36.9251 28.8872 37.4197 29.0928 37.7844 29.4586C38.149 29.8245 38.3539 30.3207 38.3539 30.8382V33.4737H34.4648V30.8382C34.4648 30.582 34.5151 30.3283 34.6129 30.0916C34.7106 29.8549 34.8538 29.6398 35.0344 29.4586C35.2149 29.2775 35.4293 29.1338 35.6652 29.0357C35.9012 28.9377 36.154 28.8872 36.4094 28.8872Z" fill="#080929"/>
<path d="M36.4094 28.8872C36.9251 28.8872 37.4197 29.0928 37.7844 29.4586C38.149 29.8245 38.3539 30.3207 38.3539 30.8382V33.4737H34.4648V30.8382C34.4648 30.582 34.5151 30.3283 34.6129 30.0916C34.7106 29.8549 34.8538 29.6398 35.0344 29.4586C35.2149 29.2775 35.4293 29.1338 35.6652 29.0357C35.9012 28.9377 36.154 28.8872 36.4094 28.8872Z" fill="white"/>
<path d="M67.8949 27.0284L61.4186 24.1533C61.3838 24.1379 61.3462 24.1299 61.3082 24.1299H30.4434C30.4082 24.1299 30.3733 24.1367 30.3406 24.15L23.2912 27.0251C23.2326 27.049 23.1841 27.0927 23.154 27.1485C23.1238 27.2044 23.114 27.269 23.1262 27.3313C23.1383 27.3936 23.1717 27.4498 23.2205 27.4902C23.2694 27.5305 23.3307 27.5526 23.394 27.5526H25.223V36.9993H25.0183V37.9577H66.1602V36.9993H65.819V27.5526H67.7844C67.847 27.5526 67.9077 27.531 67.9563 27.4915C68.0049 27.4519 68.0385 27.3968 68.0514 27.3354C68.0644 27.274 68.0559 27.21 68.0274 27.1541C67.9989 27.0982 67.9521 27.0538 67.8949 27.0284ZM65.2732 36.9993H25.7688V27.5526H65.2732V36.9993Z" fill="#8FA5BA"/>
<path d="M40.8166 21.3574H35.8359V22.1789H40.8166V21.3574Z" fill="#8FA5BA"/>
<path d="M48.1135 21.3574H43.1328V22.1789H48.1135V21.3574Z" fill="#8FA5BA"/>
<path d="M55.4143 21.3574H50.4336V22.1789H55.4143V21.3574Z" fill="#8FA5BA"/>
<path d="M58.1447 33.2007H53.1641V34.0221H58.1447V33.2007Z" fill="#8FA5BA"/>
<path d="M38.8362 33.2007H33.8555V34.0221H38.8362V33.2007Z" fill="#8FA5BA"/>
<path d="M75.9164 38.0003H0.0836084C0.061434 38.0003 0.0401679 37.9914 0.0244883 37.9757C0.00880865 37.96 0 37.9387 0 37.9164C0 37.8942 0.00880865 37.8728 0.0244883 37.8571C0.0401679 37.8414 0.061434 37.8325 0.0836084 37.8325H75.9164C75.9386 37.8325 75.9598 37.8414 75.9755 37.8571C75.9912 37.8728 76 37.8942 76 37.9164C76 37.9387 75.9912 37.96 75.9755 37.9757C75.9598 37.9914 75.9386 38.0003 75.9164 38.0003Z" fill="#47486B"/>
<path d="M56.8412 14.6112C56.8412 14.6649 56.8404 14.7194 56.8395 14.7731C56.8387 14.8377 56.837 14.9014 56.8345 14.966C56.832 15.0222 56.8295 15.0776 56.8262 15.133C56.8161 15.3183 56.8002 15.5029 56.7785 15.6883C56.7735 15.7353 56.7676 15.7814 56.7609 15.8284C56.7559 15.8644 56.7509 15.9014 56.745 15.9383C56.7392 15.9794 56.7333 16.0205 56.7266 16.0616C56.7133 16.1488 56.6982 16.2361 56.6815 16.3233C56.6731 16.3669 56.6648 16.4105 56.6556 16.4541C56.638 16.5405 56.6188 16.6278 56.5987 16.7142C56.5971 16.7209 56.5954 16.7285 56.5937 16.7352C56.5837 16.778 56.5737 16.8199 56.5628 16.8627C56.5594 16.8753 56.5569 16.887 56.5527 16.8996C56.5452 16.9315 56.5368 16.9633 56.5285 16.9952C56.5168 17.0397 56.5051 17.0833 56.4926 17.1277C56.4725 17.1965 56.4524 17.2645 56.4315 17.3333C56.4289 17.3404 56.4267 17.3477 56.4248 17.3551C56.3847 17.4851 56.3421 17.6134 56.2952 17.741C56.271 17.8081 56.2451 17.876 56.2192 17.9431C56.1932 18.0102 56.1665 18.0773 56.1389 18.1436C56.1121 18.2082 56.0845 18.2728 56.057 18.3365C56.0503 18.3516 56.0436 18.3667 56.0361 18.3818C56.0068 18.4481 55.9767 18.5127 55.9458 18.5773C55.9449 18.5781 55.9449 18.5798 55.9441 18.5806C55.9198 18.6326 55.8939 18.6847 55.868 18.7358C55.868 18.7374 55.8674 18.7389 55.8663 18.74C55.8412 18.7904 55.8153 18.8407 55.7886 18.8902L55.7459 18.9715L55.7409 18.9808C55.6874 19.0806 55.6322 19.1796 55.5737 19.2777C55.5612 19.2995 55.5486 19.3213 55.5361 19.3423C55.5235 19.3641 55.5102 19.3859 55.4968 19.4069C55.4884 19.422 55.4792 19.4371 55.4692 19.4522C55.4516 19.4807 55.4341 19.5101 55.4157 19.5386C55.4123 19.5445 55.4081 19.5504 55.4048 19.5562C55.373 19.6057 55.3413 19.6544 55.3095 19.7039C55.2702 19.7634 55.2301 19.8221 55.1891 19.8809L54.2811 21.3388L54.2418 21.3061L54.2309 21.296H54.2301L54.1941 21.2658L54.0955 21.1819C54.0654 21.2113 54.0361 21.2406 54.006 21.2692C53.9943 21.2809 53.9818 21.2918 53.9701 21.3035C53.9609 21.3119 53.9525 21.3203 53.9433 21.3287C52.3736 22.8667 50.2855 23.7574 48.0924 23.8243H48.0899C46.4297 23.87 44.7863 23.4809 43.3217 22.6952C43.2891 22.6784 43.2573 22.6616 43.2256 22.6423C43.035 22.5383 42.8485 22.4284 42.6654 22.311C42.6646 22.3102 42.6637 22.3102 42.6629 22.3093C42.4505 22.1583 42.2432 21.9973 42.0408 21.8261C40.9554 20.9082 40.0966 19.7504 39.5319 18.4436C38.9672 17.1368 38.7119 15.7165 38.786 14.2941C38.7885 14.2379 38.7918 14.1825 38.796 14.1263C38.8094 13.9233 38.83 13.7211 38.8579 13.5198C38.8654 13.4636 38.8738 13.4074 38.8821 13.3521H56.7559C56.791 13.6087 56.8153 13.8668 56.8287 14.1263C56.837 14.2882 56.8412 14.4493 56.8412 14.6112Z" fill="#D6E4F1"/>
<path d="M56.7568 13.3522C56.435 11.2052 55.356 9.24534 53.716 7.82885C52.076 6.41236 49.9839 5.6333 47.8199 5.6333C45.6559 5.6333 43.5638 6.41236 41.9238 7.82885C40.2838 9.24534 39.2048 11.2052 38.883 13.3522C38.8746 13.4076 38.8663 13.4638 38.8587 13.52C38.8312 13.7213 38.8105 13.9235 38.7969 14.1265H56.8295C56.8161 13.8673 56.7919 13.6092 56.7568 13.3522Z" fill="#1479FF"/>
<path d="M48.4051 22.6947H43.2266V18.5385C43.3221 16.6391 44.9402 16.4857 46.4606 16.5877C46.7159 16.5877 46.9688 16.6381 47.2047 16.7361C47.4406 16.8342 47.655 16.9779 47.8355 17.159C48.0161 17.3402 48.1593 17.5552 48.2571 17.7919C48.3548 18.0286 48.4051 18.2823 48.4051 18.5385V22.6947Z" fill="#1479FF"/>
<path d="M43.2256 19.7404V19.7412C43.2256 19.7421 43.2264 19.7421 43.2272 19.7421L43.2256 19.7404ZM41.1429 13.3525C41.1395 13.3735 41.1354 13.3945 41.132 13.4154C41.1353 13.3945 41.1395 13.3735 41.1437 13.3525H41.1429ZM41.0392 14.1268C41.0367 14.1587 41.0342 14.1905 41.0325 14.2224C41.0342 14.1905 41.0367 14.1587 41.04 14.1268C41.0399 14.1209 41.0402 14.115 41.0409 14.1092C41.04 14.115 41.04 14.1209 41.0392 14.1268ZM43.2256 19.7412C43.2256 19.7421 43.2264 19.7421 43.2272 19.7421L43.2256 19.7404V19.7412ZM41.1429 13.3525C41.1395 13.3735 41.1354 13.3945 41.132 13.4154C41.1353 13.3945 41.1395 13.3735 41.1437 13.3525H41.1429ZM41.0325 14.2224C41.0342 14.1905 41.0367 14.1587 41.04 14.1268C41.0399 14.1209 41.0402 14.115 41.0409 14.1092C41.04 14.115 41.04 14.1209 41.0392 14.1268C41.0367 14.1587 41.0342 14.1905 41.0325 14.2224ZM66.8625 29.6539C66.8462 29.6367 66.8289 29.6204 66.8106 29.6053L66.8098 29.6045L62.6695 26.0989L62.5625 26.0083L62.1553 25.6635L62.0533 25.5771L61.4731 25.0856L61.3142 24.9513L60.9857 24.6728L60.8176 24.5302L59.2324 23.1889L58.3236 22.4197L58.2015 22.3165L55.5235 20.0491C55.5645 19.9904 55.6046 19.9317 55.6439 19.8721C55.6757 19.8226 55.7075 19.7739 55.7392 19.7245C55.7426 19.7186 55.7467 19.7127 55.7501 19.7068C55.7685 19.6783 55.786 19.649 55.8036 19.6204C55.8136 19.6053 55.8228 19.5902 55.8312 19.5751C55.8446 19.5542 55.858 19.5324 55.8705 19.5105C55.883 19.4896 55.8956 19.4678 55.9081 19.446C55.9666 19.3478 56.0218 19.2488 56.0753 19.149L56.0803 19.1398L56.123 19.0584C56.1497 19.0089 56.1757 18.9586 56.2007 18.9083C56.2018 18.9071 56.2024 18.9056 56.2024 18.9041C56.2283 18.8529 56.2543 18.8009 56.2785 18.7489C56.2793 18.748 56.2793 18.7464 56.2802 18.7455C56.3111 18.6809 56.3412 18.6163 56.3705 18.5501C56.378 18.535 56.3847 18.5199 56.3914 18.5048C56.419 18.441 56.4466 18.3764 56.4733 18.3118C56.5009 18.2456 56.5277 18.1785 56.5536 18.1113C56.5795 18.0442 56.6054 17.9763 56.6297 17.9092C56.6756 17.7808 56.7188 17.6522 56.7593 17.5233C56.7611 17.5159 56.7633 17.5087 56.7659 17.5015C56.7868 17.4327 56.8069 17.3648 56.827 17.296C56.8395 17.2515 56.8512 17.2079 56.8629 17.1634C56.8713 17.1316 56.8796 17.0997 56.8872 17.0678C56.8913 17.0552 56.8938 17.0435 56.8972 17.0309C56.9081 16.9881 56.9181 16.9462 56.9281 16.9034C56.9298 16.8967 56.9315 16.8891 56.9332 16.8824C56.9532 16.796 56.9725 16.7088 56.99 16.6224C56.9992 16.5788 57.0076 16.5351 57.0159 16.4915C57.0318 16.4043 57.0477 16.317 57.0611 16.2298C57.0678 16.1887 57.0736 16.1476 57.0795 16.1065C57.0853 16.0696 57.0903 16.0327 57.0954 15.9966C57.102 15.9496 57.1079 15.9035 57.1129 15.8565C57.1346 15.6711 57.1505 15.4866 57.1606 15.3012C57.1639 15.2458 57.1664 15.1905 57.1689 15.1343C57.1714 15.0697 57.1731 15.0059 57.1739 14.9413C57.1748 14.8876 57.1756 14.8331 57.1756 14.7794C57.1756 14.6175 57.1714 14.4565 57.1631 14.2946C57.1497 14.0354 57.1254 13.7773 57.0903 13.5203C56.7908 11.3237 55.7134 9.30869 54.055 7.84349C52.3966 6.37828 50.2681 5.56079 48.0585 5.54043C45.8489 5.52007 43.7057 6.29821 42.0208 7.73261C40.336 9.16701 39.2218 11.1619 38.8821 13.3525C38.8738 13.4079 38.8654 13.4641 38.8579 13.5203C38.8303 13.7216 38.8097 13.9238 38.796 14.1268C38.7918 14.183 38.7885 14.2384 38.786 14.2946C38.7119 15.717 38.9672 17.1373 39.5319 18.4441C40.0966 19.7509 40.9554 20.9086 42.0408 21.8266C42.2432 21.9978 42.4505 22.1588 42.6629 22.3098C42.6637 22.3106 42.6645 22.3106 42.6654 22.3115C42.7365 22.3618 42.8075 22.4113 42.8794 22.46C42.994 22.5354 43.1093 22.6093 43.2256 22.6797C43.2348 22.6848 43.244 22.6906 43.2532 22.6957C43.3535 22.7561 43.4547 22.8139 43.5558 22.8702H43.5566C43.9332 23.0779 44.3241 23.2584 44.7263 23.4104C45.9064 23.8558 47.165 24.054 48.4243 23.9925H48.4268C49.8967 23.9212 51.3279 23.4963 52.5997 22.7536C52.7845 22.6462 52.9668 22.5313 53.1449 22.4088C53.1892 22.3786 53.2343 22.3475 53.2778 22.3165C53.3313 22.2788 53.3848 22.2393 53.4383 22.1999C53.4392 22.1999 53.4392 22.1991 53.44 22.1991C53.444 22.1957 53.4482 22.1926 53.4525 22.1898C53.4885 22.1622 53.5253 22.1345 53.5604 22.1076C53.5696 22.1009 53.5788 22.0942 53.588 22.0867C53.5904 22.085 53.5927 22.083 53.5947 22.0808C53.6156 22.0657 53.6356 22.0489 53.6565 22.033C53.6774 22.017 53.6975 22.0003 53.7184 21.9835C53.7219 21.9812 53.7253 21.9787 53.7284 21.9759C53.7519 21.9566 53.7753 21.9382 53.7987 21.9189C53.8229 21.8996 53.8463 21.8795 53.8689 21.8602C53.8923 21.8409 53.9149 21.8216 53.9383 21.8015C53.9584 21.7847 53.9793 21.7671 53.9993 21.7486C54.006 21.7436 54.0119 21.7377 54.0186 21.7318C54.0211 21.7293 54.0239 21.7271 54.0269 21.7251C54.0545 21.7016 54.0813 21.6773 54.108 21.653C54.1147 21.6471 54.1206 21.6412 54.1273 21.6353C54.1682 21.5984 54.2092 21.5615 54.2493 21.523C54.2585 21.5146 54.2686 21.5053 54.2777 21.4969C54.2869 21.4885 54.2953 21.4802 54.3045 21.4718C54.3162 21.46 54.3287 21.4491 54.3404 21.4374C54.3706 21.4089 54.3998 21.3795 54.4299 21.3502L54.5286 21.434L54.5645 21.4642H54.5654L54.5762 21.4743L54.6155 21.507L55.1991 22.0019L55.2117 22.0128L55.2217 22.0204L55.2877 22.0766L55.4198 22.189L55.552 22.3006L55.5712 22.3165L56.1857 22.8366L56.271 22.9087L56.8638 23.4104L59.9322 26.0083L60.0392 26.0989L64.2389 29.654L65.3157 30.5658L65.7162 30.9047C65.8012 30.9769 65.8996 31.0315 66.0056 31.0655C66.1117 31.0995 66.2234 31.1122 66.3344 31.1029C66.4454 31.0935 66.5534 31.0623 66.6523 31.011C66.7513 30.9598 66.8391 30.8894 66.911 30.804C66.9711 30.7332 67.0189 30.6526 67.0523 30.5658C67.113 30.4118 67.1274 30.2434 67.0936 30.0813C67.0599 29.9192 66.9795 29.7707 66.8625 29.6539ZM42.6436 10.2085C43.4824 9.21124 44.5853 8.47239 45.8249 8.07733C47.0644 7.68226 48.3901 7.64709 49.6487 7.97588C50.9073 8.30468 52.0476 8.98401 52.9377 9.93542C53.8279 10.8868 54.4316 12.0715 54.6791 13.3525C54.6899 13.4087 54.7 13.4641 54.7092 13.5203C54.7434 13.7208 54.7685 13.9238 54.7836 14.1268C54.7878 14.183 54.7919 14.2384 54.7945 14.2946C54.802 14.4204 54.8053 14.5471 54.8053 14.6729C54.8058 15.4362 54.6798 16.1942 54.4324 16.916V16.9168C54.156 17.7261 53.7315 18.4766 53.1808 19.1297C53.1691 19.1431 53.1574 19.1574 53.1449 19.1708C53.0345 19.3017 52.9183 19.4275 52.7987 19.5475C52.7979 19.5483 52.797 19.55 52.7962 19.5508C52.7552 19.5919 52.7134 19.6339 52.6716 19.6725C52.5863 19.7555 52.4994 19.8343 52.4108 19.9099C52.2778 20.0265 52.1416 20.1358 52.0019 20.2378C51.9551 20.2722 51.9083 20.3058 51.8606 20.3393C51.8138 20.3729 51.7662 20.4048 51.7185 20.4366C51.6232 20.5004 51.5262 20.5616 51.4284 20.6195C51.3799 20.6489 51.3297 20.6774 51.2804 20.7051C51.231 20.7336 51.1809 20.7604 51.1307 20.7865C51.0806 20.8133 51.0304 20.8393 50.9794 20.8645C50.8782 20.9156 50.7762 20.9634 50.6726 21.0079C50.6207 21.0314 50.5689 21.0532 50.517 21.0733C50.4844 21.0868 50.4527 21.1002 50.4201 21.1119C50.4073 21.1178 50.3942 21.1229 50.3808 21.127C50.3632 21.1346 50.3456 21.1413 50.3281 21.1472C50.3224 21.1498 50.3165 21.152 50.3105 21.1539C50.2746 21.1681 50.2395 21.1807 50.2027 21.1933C50.15 21.2126 50.0973 21.2302 50.0438 21.247C49.9903 21.2646 49.9376 21.2814 49.8841 21.2965C49.8306 21.3133 49.7763 21.3284 49.7228 21.3426C49.6684 21.3577 49.6149 21.372 49.5606 21.3845C49.5029 21.3997 49.4452 21.4131 49.3866 21.4257C49.3357 21.4374 49.2855 21.4475 49.2345 21.4567C49.1868 21.4668 49.1384 21.4752 49.0907 21.4835C49.0238 21.4953 48.9569 21.5062 48.8892 21.5154C48.8524 21.5213 48.8165 21.5263 48.7797 21.5297C48.7638 21.5322 48.7487 21.5339 48.7337 21.5356C48.6869 21.5423 48.64 21.5473 48.594 21.5515C48.5815 21.5523 48.5698 21.554 48.5581 21.5548C48.5071 21.5599 48.4553 21.5641 48.4043 21.5683C48.2947 21.5758 48.186 21.5808 48.0765 21.5834C48.0213 21.5842 47.9653 21.585 47.9101 21.585C47.855 21.585 47.7998 21.5842 47.7446 21.5825C47.7446 21.5825 47.7446 21.5834 47.7437 21.5825C47.7429 21.5834 47.7429 21.5834 47.7421 21.5825C47.742 21.5826 47.7418 21.5827 47.7417 21.5828C47.7416 21.5828 47.7414 21.5829 47.7412 21.5829C47.7411 21.5829 47.7409 21.5828 47.7408 21.5828C47.7406 21.5827 47.7405 21.5826 47.7404 21.5825C47.7377 21.5834 47.7348 21.5834 47.7321 21.5825C47.6928 21.5825 47.6534 21.5808 47.615 21.5783C47.5866 21.5775 47.5573 21.5767 47.528 21.5741C47.4888 21.5725 47.4495 21.5699 47.4102 21.5666C47.3976 21.5666 47.3851 21.5649 47.3725 21.5641C47.3667 21.5639 47.3608 21.5634 47.355 21.5624C47.3149 21.559 47.2739 21.5557 47.2337 21.5515C47.2137 21.5498 47.1928 21.5481 47.1727 21.5456C47.1117 21.5389 47.0506 21.5314 46.9904 21.523C46.9219 21.5146 46.8533 21.5045 46.7856 21.4919C46.7538 21.4877 46.7229 21.4819 46.6919 21.476C46.651 21.4693 46.61 21.4617 46.5691 21.4533C46.5264 21.445 46.4838 21.4366 46.4411 21.4265C46.4069 21.4189 46.3717 21.4114 46.3375 21.403C46.3207 21.3997 46.304 21.3955 46.2881 21.3913C46.2003 21.3703 46.1134 21.3477 46.0273 21.3225C45.9729 21.3074 45.9186 21.2915 45.8651 21.2747C45.7915 21.252 45.7188 21.2277 45.646 21.2017C45.6176 21.1925 45.59 21.1824 45.5616 21.1715C45.5331 21.1623 45.5056 21.1514 45.4771 21.1405C45.4512 21.1312 45.4253 21.1212 45.4002 21.1111C45.3584 21.0952 45.3174 21.0784 45.2765 21.0616C45.192 21.0272 45.1092 20.9911 45.0265 20.9526C44.9796 20.9299 44.9328 20.9081 44.8869 20.8854C44.7054 20.7974 44.5268 20.6995 44.3509 20.5918C44.3074 20.5658 44.264 20.5382 44.2205 20.5105C44.1661 20.4769 44.1135 20.4417 44.0608 20.4065C44.0315 20.3863 44.0031 20.367 43.9747 20.3469C43.922 20.31 43.8702 20.2722 43.8192 20.2345C43.7924 20.2152 43.7657 20.1951 43.7397 20.1749C43.6469 20.1045 43.5558 20.0306 43.4663 19.9552C43.4237 19.9191 43.3811 19.8822 43.3393 19.8444C43.3217 19.8293 43.3041 19.8134 43.2866 19.7975C43.2665 19.779 43.2464 19.7614 43.2272 19.7421L43.2255 19.7404C43.1963 19.7144 43.167 19.6867 43.1386 19.659C43.0943 19.6171 43.0508 19.5743 43.009 19.5307C42.9655 19.4879 42.9237 19.4435 42.8828 19.3998C42.841 19.3562 42.8008 19.3118 42.7615 19.2664C42.7214 19.222 42.6821 19.1767 42.6436 19.1306C42.606 19.0869 42.5692 19.0416 42.5341 18.9972C42.4488 18.8915 42.3674 18.7838 42.29 18.6742C42.254 18.6239 42.2198 18.5736 42.1863 18.5224C42.1504 18.4704 42.1161 18.4175 42.0835 18.3647C42.0492 18.3118 42.0166 18.2581 41.9848 18.2036C41.984 18.2018 41.9829 18.2001 41.9815 18.1986C41.9188 18.0921 41.8586 17.9847 41.8025 17.8756C41.7448 17.7649 41.6905 17.6531 41.6395 17.5401C41.6136 17.4839 41.5885 17.4268 41.5651 17.3698C41.5166 17.2549 41.4714 17.14 41.4296 17.0234C41.4087 16.9672 41.3895 16.9109 41.3703 16.8539C41.3697 16.8501 41.3685 16.8465 41.3669 16.843C41.3285 16.7272 41.2934 16.6107 41.2624 16.4932C41.2616 16.4915 41.2616 16.4899 41.2607 16.4882C41.2449 16.4303 41.2298 16.3724 41.2165 16.3137C41.2031 16.2625 41.1914 16.2114 41.1805 16.1593C41.168 16.1015 41.1554 16.0436 41.1445 15.9849C41.1387 15.9547 41.1328 15.9245 41.1278 15.8943C41.1228 15.8691 41.1186 15.8431 41.1144 15.8179C41.1103 15.7928 41.1061 15.7668 41.1019 15.7408C41.0935 15.6896 41.086 15.6384 41.0793 15.5873C41.071 15.5269 41.0643 15.4665 41.0576 15.4052C41.0501 15.3322 41.0434 15.2592 41.0375 15.1854C41.0333 15.1359 41.0308 15.0856 41.0283 15.0353C41.0258 14.9891 41.0233 14.943 41.0225 14.8969C41.0216 14.8944 41.0216 14.8918 41.0225 14.8893C41.0224 14.8892 41.0223 14.8891 41.0222 14.8889C41.0222 14.8888 41.0221 14.8886 41.0221 14.8885C41.0221 14.8883 41.0222 14.8882 41.0222 14.888C41.0223 14.8879 41.0224 14.8878 41.0225 14.8876C41.0216 14.8868 41.0216 14.8868 41.0225 14.886C41.0224 14.8859 41.0223 14.8857 41.0222 14.8856C41.0222 14.8854 41.0221 14.8853 41.0221 14.8851C41.0221 14.885 41.0222 14.8848 41.0222 14.8847C41.0223 14.8845 41.0224 14.8844 41.0225 14.8843C41.0216 14.8658 41.0208 14.8474 41.0208 14.8289C41.0191 14.7744 41.0183 14.7199 41.0183 14.6654C41.0183 14.6159 41.0191 14.5672 41.02 14.5177C41.0216 14.4489 41.0241 14.3801 41.0275 14.3114C41.0275 14.2963 41.0292 14.282 41.03 14.2669C41.0308 14.2518 41.0317 14.2375 41.0325 14.2224C41.0342 14.1906 41.0367 14.1587 41.04 14.1268C41.0399 14.1209 41.0402 14.115 41.0409 14.1092C41.0434 14.0731 41.0467 14.0371 41.0501 14.001C41.0568 13.9288 41.0651 13.8559 41.0743 13.7837C41.0793 13.7476 41.0835 13.7116 41.0894 13.6755C41.0927 13.6503 41.0969 13.6243 41.1011 13.5983C41.1044 13.5723 41.1086 13.5463 41.1136 13.5203C41.1195 13.4859 41.1253 13.4507 41.132 13.4155C41.1353 13.3945 41.1395 13.3735 41.1437 13.3525C41.1596 13.2687 41.1771 13.1848 41.1964 13.1009C41.2156 13.0162 41.2374 12.9323 41.2607 12.8484C41.2833 12.7637 41.3084 12.6789 41.3352 12.5942C41.3477 12.5514 41.3611 12.5095 41.3761 12.4676C41.4037 12.3828 41.433 12.299 41.4656 12.2159C41.4806 12.1748 41.4965 12.1329 41.5141 12.0918C41.5475 12.0087 41.5826 11.9257 41.6186 11.8443C41.637 11.8032 41.6554 11.7621 41.6754 11.721C41.7131 11.6396 41.7524 11.5582 41.795 11.4786C41.836 11.3972 41.8803 11.3175 41.9254 11.2386C41.9706 11.1598 42.0174 11.0809 42.0667 11.0029C42.0893 10.9643 42.1144 10.9249 42.1403 10.8872C42.1905 10.81 42.2431 10.7328 42.2967 10.6573C42.4045 10.5046 42.5207 10.3545 42.6436 10.2085ZM41.0392 14.1268C41.0367 14.1587 41.0342 14.1905 41.0325 14.2224C41.0342 14.1905 41.0367 14.1587 41.04 14.1268C41.0399 14.1209 41.0402 14.115 41.0409 14.1092C41.04 14.115 41.04 14.1209 41.0392 14.1268ZM41.1429 13.3525C41.1395 13.3735 41.1354 13.3945 41.132 13.4154C41.1354 13.3945 41.1395 13.3735 41.1437 13.3525H41.1429ZM43.2256 19.7404V19.7412C43.2256 19.7421 43.2264 19.7421 43.2272 19.7421L43.2256 19.7404Z" fill="#47486B"/>
<path opacity="0.3" d="M43.47 19.9546C42.1475 18.8349 41.2931 17.2572 41.0764 15.5347C40.8597 13.8123 41.2966 12.071 42.3002 10.6567C42.1684 10.7899 42.041 10.9294 41.918 11.0752C41.3342 11.7693 40.8923 12.5721 40.6177 13.4376C40.3432 14.303 40.2412 15.2143 40.3176 16.1193C40.394 17.0244 40.6473 17.9054 41.0631 18.7122C41.4789 19.519 42.0491 20.2357 42.7409 20.8215C44.1382 22.0044 45.9467 22.582 47.7684 22.4271C49.5902 22.2723 51.276 21.3977 52.4551 19.9958C52.5778 19.8498 52.6934 19.7003 52.8019 19.5473C51.5812 20.7779 49.9439 21.5029 48.2152 21.5783C46.4864 21.6537 44.7925 21.0742 43.47 19.9546Z" fill="#47486B"/>
</g>
<defs>
<clipPath id="clip0_1232_9112">
<rect width="76" height="38" fill="white"/>
</clipPath>
</defs>
</svg>
