<?xml version="1.0" encoding="UTF-8"?><svg xmlns="http://www.w3.org/2000/svg" viewBox="0 0 283.04 107.36"><defs><style>.f{fill:#080929;}</style></defs><g id="a"/><g id="b"><g id="c"><g id="d"><g><g><path class="f" d="M6.32,61.07V26.95H0v-8.32H6.32v-3.61c0-4.76,1.37-8.45,4.1-11.08C13.15,1.31,16.97,0,21.89,0c1.57,0,3.49,.26,5.77,.78l-.12,8.79c-.94-.24-2.09-.35-3.45-.35-4.26,0-6.39,2-6.39,6v3.41h8.43v8.32h-8.43V61.07H6.32Z"/><path class="f" d="M56.6,61.07c-.52-1.02-.9-2.29-1.14-3.8-2.75,3.06-6.31,4.59-10.71,4.59-4.16,0-7.6-1.2-10.34-3.61s-4.1-5.44-4.1-9.1c0-4.5,1.67-7.95,5-10.36s8.15-3.62,14.45-3.65h5.22v-2.43c0-1.96-.5-3.53-1.51-4.71-1.01-1.18-2.6-1.76-4.77-1.76-1.91,0-3.41,.46-4.49,1.37-1.09,.92-1.63,2.17-1.63,3.77h-11.34c0-2.46,.76-4.73,2.27-6.82,1.52-2.09,3.66-3.73,6.43-4.92,2.77-1.19,5.88-1.78,9.34-1.78,5.23,0,9.38,1.31,12.45,3.94,3.07,2.63,4.61,6.32,4.61,11.08v18.4c.03,4.03,.59,7.07,1.69,9.14v.67h-11.45Zm-9.37-7.89c1.67,0,3.22-.37,4.63-1.12,1.41-.75,2.46-1.74,3.14-3v-7.3h-4.24c-5.67,0-8.69,1.96-9.06,5.88l-.04,.67c0,1.41,.5,2.58,1.49,3.49,.99,.92,2.35,1.37,4.08,1.37Z"/><path class="f" d="M98.93,29.26c-1.54-.21-2.9-.31-4.08-.31-4.29,0-7.1,1.45-8.43,4.35v27.77h-11.34V18.63h10.71l.32,5.06c2.27-3.9,5.42-5.84,9.45-5.84,1.26,0,2.43,.17,3.53,.51l-.16,10.9Z"/><path class="f" d="M115.01,18.63l.35,4.75c3.01-3.69,7.07-5.53,12.2-5.53,5.46,0,9.22,2.16,11.26,6.47,2.98-4.32,7.23-6.47,12.75-6.47,4.6,0,8.03,1.34,10.28,4.02s3.38,6.71,3.38,12.1v27.1h-11.38v-27.07c0-2.41-.47-4.16-1.41-5.28s-2.6-1.67-4.98-1.67c-3.4,0-5.76,1.62-7.06,4.86l.04,29.14h-11.34v-27.03c0-2.46-.48-4.24-1.45-5.34-.97-1.1-2.62-1.65-4.94-1.65-3.22,0-5.54,1.33-6.98,4v30.01h-11.34V18.63h10.63Z"/></g><g><path class="f" d="M79.81,93.17c0-.7-.35-1.25-1.04-1.66-.69-.4-1.81-.77-3.35-1.08-5.11-1.07-7.66-3.24-7.66-6.51,0-1.91,.79-3.5,2.37-4.77,1.58-1.28,3.65-1.92,6.2-1.92,2.73,0,4.91,.64,6.54,1.93,1.63,1.28,2.45,2.95,2.45,5h-5.74c0-.82-.27-1.5-.79-2.03s-1.36-.8-2.48-.8c-.97,0-1.71,.22-2.24,.65-.53,.44-.79,.99-.79,1.67,0,.64,.3,1.15,.9,1.54,.6,.39,1.62,.73,3.05,1.01s2.63,.61,3.61,.96c3.03,1.11,4.55,3.04,4.55,5.78,0,1.96-.84,3.54-2.52,4.75-1.68,1.21-3.85,1.82-6.51,1.82-1.8,0-3.4-.32-4.79-.96-1.4-.64-2.49-1.52-3.29-2.64-.79-1.12-1.19-2.33-1.19-3.62h5.44c.05,1.02,.43,1.8,1.13,2.34,.7,.54,1.64,.81,2.82,.81,1.1,0,1.93-.21,2.49-.62,.56-.42,.84-.96,.84-1.64Z"/><path class="f" d="M108.42,88.56c0,3.31-.75,5.96-2.25,7.95-1.5,1.99-3.53,2.99-6.08,2.99-2.17,0-3.92-.76-5.26-2.26v10.12h-5.74v-29.74h5.32l.2,2.1c1.39-1.67,3.2-2.5,5.44-2.5,2.65,0,4.71,.98,6.17,2.94,1.47,1.96,2.2,4.66,2.2,8.1v.3Zm-5.74-.42c0-2-.35-3.54-1.06-4.63-.71-1.09-1.74-1.63-3.09-1.63-1.8,0-3.04,.69-3.71,2.06v8.79c.7,1.42,1.95,2.12,3.75,2.12,2.74,0,4.11-2.24,4.11-6.73Z"/><path class="f" d="M121.86,99.5c-3.15,0-5.71-.97-7.69-2.9-1.98-1.93-2.97-4.51-2.97-7.72v-.56c0-2.16,.42-4.09,1.25-5.79s2.02-3.01,3.54-3.93c1.53-.92,3.27-1.38,5.23-1.38,2.94,0,5.25,.93,6.94,2.78,1.69,1.85,2.53,4.48,2.53,7.88v2.34h-13.68c.19,1.4,.74,2.53,1.68,3.38,.93,.85,2.11,1.27,3.54,1.27,2.21,0,3.94-.8,5.18-2.4l2.82,3.16c-.86,1.22-2.03,2.17-3.49,2.85-1.47,.68-3.1,1.02-4.88,1.02Zm-.66-17.65c-1.14,0-2.06,.38-2.77,1.16-.71,.77-1.16,1.87-1.36,3.31h7.98v-.46c-.03-1.28-.37-2.26-1.03-2.96-.66-.7-1.6-1.05-2.82-1.05Z"/><path class="f" d="M142.88,94.88c1.06,0,1.92-.29,2.58-.87,.66-.58,1.01-1.36,1.03-2.32h5.38c-.01,1.46-.41,2.79-1.19,4-.78,1.21-1.85,2.15-3.21,2.82s-2.86,1-4.5,1c-3.07,0-5.49-.98-7.26-2.93-1.77-1.95-2.66-4.65-2.66-8.09v-.38c0-3.31,.88-5.95,2.64-7.92,1.76-1.97,4.17-2.96,7.25-2.96,2.69,0,4.84,.77,6.46,2.29,1.62,1.53,2.44,3.56,2.47,6.1h-5.38c-.03-1.12-.37-2.03-1.03-2.72s-1.54-1.05-2.62-1.05c-1.34,0-2.35,.49-3.03,1.46-.68,.97-1.02,2.55-1.02,4.74v.6c0,2.21,.34,3.8,1.01,4.77,.67,.97,1.7,1.45,3.08,1.45Z"/><path class="f" d="M162.02,72.34v5.28h3.67v4.21h-3.67v10.72c0,.79,.15,1.36,.46,1.71,.31,.34,.89,.52,1.75,.52,.64,0,1.2-.05,1.69-.14v4.35c-1.12,.34-2.28,.52-3.47,.52-4.02,0-6.07-2.03-6.15-6.09v-11.57h-3.14v-4.21h3.14v-5.28h5.74Z"/></g></g><g id="e"><path class="f" d="M236.72,98.53c-25.54,0-46.32-20.78-46.32-46.32S211.18,5.9,236.72,5.9s46.32,20.78,46.32,46.32c0,7.82-1.98,15.54-5.74,22.34-1.07,1.94-3.51,2.65-5.45,1.58s-2.65-3.51-1.58-5.45c3.1-5.62,4.74-12,4.74-18.46,0-21.11-17.18-38.29-38.29-38.29s-38.29,17.18-38.29,38.29,17.18,38.29,38.29,38.29c6.57,0,13.05-1.69,18.73-4.89,1.93-1.09,4.38-.4,5.47,1.53s.4,4.38-1.53,5.47c-6.88,3.87-14.72,5.92-22.67,5.92Z"/><path class="f" d="M218.2,56.96c-.18,0-.36-.01-.55-.04-2.2-.3-3.74-2.32-3.44-4.52,1.73-12.76,12.34-22.44,25.21-23.01,2.21-.12,4.09,1.62,4.19,3.83,.1,2.21-1.62,4.09-3.83,4.19-8.99,.4-16.4,7.16-17.61,16.07-.27,2.01-2,3.47-3.97,3.47Z"/></g></g></g></g></svg>